<svg xmlns="http://www.w3.org/2000/svg" viewBox="0 0 64 64">
  <defs>
    <radialGradient id="bg" cx="50%" cy="40%" r="65%">
      <stop offset="0%" stop-color="#2a4778"/>
      <stop offset="35%" stop-color="#1a2e54"/>
      <stop offset="75%" stop-color="#0d1f3c"/>
      <stop offset="100%" stop-color="#07142a"/>
    </radialGradient>
    <symbol id="star" viewBox="-1 -1 2 2" overflow="visible">
      <polygon
        fill="#e6c98a"
        points="0,-1 0.224,-0.309 0.951,-0.309 0.363,0.118 0.588,0.809 0,0.382 -0.588,0.809 -0.363,0.118 -0.951,-0.309 -0.224,-0.309"/>
    </symbol>
  </defs>

  <rect width="64" height="64" rx="8" fill="url(#bg)"/>

  <g fill="none" stroke="#c8a868">
    <circle cx="32" cy="32" r="29"   stroke-width="1.2"/>
    <circle cx="32" cy="32" r="24"   stroke-width="0.6" stroke-opacity="0.6"/>
    <circle cx="32" cy="32" r="20"   stroke-width="0.4" stroke-opacity="0.4"/>
  </g>

  <g stroke="#e6c98a" fill="none" stroke-width="0.9" stroke-linejoin="round">
    <polygon points="32,18 44,25 44,39 32,46 20,39 20,25"/>
    <polygon points="32,22 40.8,26.8 40.8,37.2 32,42 23.2,37.2 23.2,26.8" stroke-opacity="0.7"/>
    <line x1="20"   y1="32" x2="44"   y2="32" stroke-opacity="0.6"/>
    <line x1="32"   y1="18" x2="32"   y2="46" stroke-opacity="0.6"/>
    <line x1="23.2" y1="26.8" x2="40.8" y2="37.2" stroke-opacity="0.4"/>
    <line x1="40.8" y1="26.8" x2="23.2" y2="37.2" stroke-opacity="0.4"/>
    <circle cx="32" cy="32" r="1.8" fill="#e6c98a" stroke="none"/>
  </g>

  <use href="#star" x="30"   y="0.5"  width="4" height="4"/>
  <use href="#star" x="59.5" y="30"   width="4" height="4"/>
  <use href="#star" x="30"   y="59.5" width="4" height="4"/>
  <use href="#star" x="0.5"  y="30"   width="4" height="4"/>
</svg>
